<?xml version="1.0" encoding="UTF-8"?>
<svg id="Mouliinaa_Logo" data-name="Mouliinaa Logo" xmlns="http://www.w3.org/2000/svg" viewBox="0 0 4331.18 5125.4">
  <defs>
    <style>
      .cls-1 {
        fill: #fff;
        stroke: #fff;
        stroke-miterlimit: 10;
        stroke-width: 303px;
      }
    </style>
  </defs>
  <path class="cls-1" d="m2165.59,151.5c-1112.35,0-2014.09,901.74-2014.09,2014.09,0,791.77,456.88,1476.81,1121.37,1805.92l21.38-139.01,292.89-1904.57,449.55,1442.9,128.9,1743.4,128.9-1743.4,449.55-1442.9,292.89,1904.57,21.38,139.01c664.49-329.11,1121.37-1014.15,1121.37-1805.92,0-1112.35-901.74-2014.09-2014.09-2014.09h0Zm1168.17,3305.6l-362.54-2153.52-322.25-50-483.38,1690.66-483.38-1690.66-322.25,50-362.54,2149.72c-360.07-317.4-561.53-782.07-561.53-1299.8,0-956.62,775.5-1732.12,1732.12-1732.12s1732.12,775.5,1732.12,1732.12c0,519.79-203.79,986.1-566.36,1303.59h-.01Z"/>
</svg>